<?xml version="1.0" standalone="no"?><!DOCTYPE svg PUBLIC "-//W3C//DTD SVG 1.1//EN" "http://www.w3.org/Graphics/SVG/1.1/DTD/svg11.dtd"><svg class="icon" width="200px" height="200.00px" viewBox="0 0 1024 1024" version="1.1" xmlns="http://www.w3.org/2000/svg"><path d="M375.567775 244.430981c-2.48522 70.465556-47.448592 110.28006-47.448592 110.28006l1.108791 1.860729c-49.984791 17.9828-85.963135 65.839222-85.963135 121.801287v384.967005c0 71.217494 58.256114 129.511842 129.499097 129.511843h345.738759c71.242984 0 129.499098-58.294348 129.499097-129.511843V478.373057c0-55.962065-36.016578-103.780253-85.95039-121.801287l1.096046-1.860729s-44.963371-39.814505-47.435847-110.28006" fill="#E2FFBD" /><path d="M366.111193 83.210275c-37.928286 43.332047-54.521911 105.054725-54.521912 105.054726 0 50.749474 104.774341 91.876685 234.044034 91.876684s234.044034-41.127211 234.044034-91.876684c0 0-27.898192-77.080065-54.521911-105.054726" fill="#FFD7E9" /><path d="M725.155438 83.210275c0 38.909629-80.291735 70.452811-179.522123 70.452811S366.111193 122.119905 366.111193 83.210275 446.402927 12.74472 545.633315 12.74472s179.522123 31.543181 179.522123 70.465555z" fill="#FEE89C" /><path d="M663.980783 1024H318.242025A142.409499 142.409499 0 0 1 176.010952 881.794417v-385.017985a142.740862 142.740862 0 0 1 87.148394-130.951995 12.821188 12.821188 0 0 1 2.000921-2.255816c0.382342-0.344107 40.91055-37.418497 43.153622-101.18033a12.752367 12.752367 0 0 1 25.489439 0.89213c-2.153858 61.251123-33.900955 100.836223-46.594695 114.307392a16.224028 16.224028 0 0 1-0.4843 1.707792 12.74472 12.74472 0 0 1-7.646832 7.646832 117.251422 117.251422 0 0 0-77.577109 109.833995v385.017985a116.89457 116.89457 0 0 0 116.754378 116.767122h345.726013a116.881825 116.881825 0 0 0 116.754378-116.767122v-385.017985a117.251422 117.251422 0 0 0-77.538875-109.808505 12.74472 12.74472 0 0 1-7.646832-7.646832 11.776121 11.776121 0 0 1-0.484299-1.707793c-12.74472-13.471169-44.453583-53.056268-46.60744-114.307391a12.74472 12.74472 0 0 1 12.28591-13.178041h0.458809a12.74472 12.74472 0 0 1 12.74472 12.298655c2.26856 64.258877 42.74579 100.823478 43.153621 101.18033a13.445679 13.445679 0 0 1 2.013666 2.255816 142.740862 142.740862 0 0 1 87.11016 130.913761v385.017985a142.409499 142.409499 0 0 1-142.243818 142.205583zM491.111404 166.407806c-49.513236 0-96.248124-7.646832-131.601976-21.513087-39.12629-15.357387-60.664866-37.265561-60.664866-61.684444s21.538576-46.39078 60.690355-61.684443C394.88877 7.659577 441.623657 0.012745 491.136894 0.012745s96.248124 7.646832 131.601976 21.513087c39.12629 15.293664 60.677611 37.265561 60.677611 61.697188s-21.551321 46.327056-60.677611 61.684444c-35.366597 13.866255-82.11423 21.500342-131.627466 21.500342z m0-140.918366c-95.457951 0-166.777403 30.472625-166.777403 57.720835s71.370431 57.708091 166.777403 57.708092 166.790148-30.472625 166.790148-57.708092S586.569355 25.48944 491.111404 25.48944z" fill="#5B2D61" /><path d="M491.111404 292.886405c-64.080451 0-124.503168-9.877158-170.154753-27.796234-49.3603-19.397464-76.634-46.683909-76.634-76.82517v-1.682303l0.43332-1.631325c0.713704-2.638157 17.842608-65.100029 57.236536-110.139868l19.11708 16.784796c-32.027481 36.602835-48.353467 88.231695-51.310242 98.26179 2.548944 36.959687 92.692347 77.538875 221.248336 77.538875 128.071689 0 218.023921-40.222336 221.222846-77.105555-8.347791-22.49443-31.339266-77.742791-50.97888-98.300024l18.467099-17.574968c28.140341 29.580495 56.076767 106.265474 57.274771 109.515377l0.751939 2.102879v2.230326c0 30.141262-27.209977 57.427707-76.634 76.82517-45.536884 17.919076-105.9596 27.796234-170.040052 27.796234zM601.569891 771.827877l21.316818-13.97586 88.081307 134.347189-21.315544 13.974585zM549.494966 866.596338l21.315543-13.975859 63.463607 96.797421-21.315544 13.97586z" fill="#5B2D61" /><path d="M536.32967 618.641443l-6.142955 66.094117 51.221029 42.93696-65.04905 14.108405-24.775735 61.480528-34.079381-57.376728-66.540182-4.944951 44.007518-49.564215-16.338731-64.539261 61.251123 26.738422 56.446364-34.933277z" fill="#EC4F75" /><path d="M492.66626 817.586518l-38.935119-65.597072-76.073232-5.658656 50.303409-56.663024-18.709249-73.919375 70.095959 30.587328 64.513771-39.827249-7.02234 75.499719 58.625711 49.156385-74.454653 16.134815z m-88.384632-82.050505l57.007132 4.243991 29.198153 49.156384 21.219958-52.661182 55.643447-12.069249-43.816347-36.730283 5.26357-56.675769-48.429935 29.950092-52.393543-22.864027 14.019191 55.184636z" fill="#5B2D61" /></svg>